<svg height="480pt" viewBox="-55 0 480 480.003" width="480pt" xmlns="http://www.w3.org/2000/svg"><path d="m345.523438 0h-208c-13.253907 0-24 10.746094-24 24v120.105469l-107.59375 28.796875c-4.265626 1.144531-6.800782 5.535156-5.65625 9.800781l49.679687 185.441406c.9375 3.496094 4.109375 5.929688 7.730469 5.925781.699218 0 1.394531-.09375 2.070312-.269531l53.769532-14.394531v112.59375c0 3.078125 1.761718 5.878906 4.535156 7.214844 2.769531 1.332031 6.0625.957031 8.464844-.96875l115-92.007813 115 92c2.398437 1.921875 5.6875 2.300781 8.460937.96875s4.535156-4.132812 4.539063-7.207031v-448c0-13.253906-10.746094-24-24-24zm-216 24c0-4.417969 3.582031-8 8-8h208c4.417968 0 8 3.582031 8 8v56h-224zm-111.722657 162.296875 216.386719-57.9375 45.535156 169.984375-216.382812 57.9375zm228.722657 183.457031c-2.921876-2.34375-7.078126-2.34375-10 0l-107 85.597656v-100.230468l162.0625-43.394532c4.273437-1.140624 6.808593-5.527343 5.664062-9.796874l-49.679688-185.433594c-1.140624-4.273438-5.527343-6.808594-9.800781-5.664063l-108.246093 28.992188v-43.824219h224v359.351562zm0 0"/><path d="m243.792969 279.671875c4.238281-1.253906 6.65625-5.707031 5.402343-9.945313-1.253906-4.234374-5.707031-6.652343-9.945312-5.398437l-152 44.960937c-4.238281 1.253907-6.652344 5.707032-5.398438 9.941407 1.253907 4.238281 5.707032 6.65625 9.941407 5.402343zm0 0"/><path d="m233.195312 221.734375c-.601562-2.035156-1.988281-3.75-3.851562-4.761719-1.867188-1.015625-4.058594-1.246094-6.09375-.644531l-152 44.960937c-4.238281 1.253907-6.652344 5.707032-5.398438 9.941407 1.253907 4.238281 5.707032 6.65625 9.941407 5.402343l152-44.960937c4.234375-1.253906 6.652343-5.703125 5.402343-9.9375zm0 0"/><path d="m217.195312 173.734375c-.601562-2.035156-1.988281-3.75-3.851562-4.761719-1.867188-1.015625-4.058594-1.246094-6.09375-.644531l-152 44.960937c-4.238281 1.253907-6.652344 5.707032-5.398438 9.941407 1.253907 4.238281 5.707032 6.65625 9.941407 5.402343l152-44.960937c4.234375-1.253906 6.652343-5.703125 5.402343-9.9375zm0 0"/></svg>