<svg height="480pt" viewBox="0 0 480 480" width="480pt" xmlns="http://www.w3.org/2000/svg"><path d="m456 0h-432c-13.253906 0-24 10.746094-24 24v432c0 13.253906 10.746094 24 24 24h432c13.253906 0 24-10.746094 24-24v-432c0-13.253906-10.746094-24-24-24zm-440 24c0-4.417969 3.582031-8 8-8h432c4.417969 0 8 3.582031 8 8v104h-448zm448 432c0 4.417969-3.582031 8-8 8h-432c-4.417969 0-8-3.582031-8-8v-312h448zm0 0"/><path d="m72 40c-17.671875 0-32 14.328125-32 32s14.328125 32 32 32 32-14.328125 32-32-14.328125-32-32-32zm0 48c-8.835938 0-16-7.164062-16-16s7.164062-16 16-16 16 7.164062 16 16-7.164062 16-16 16zm0 0"/><path d="m152 40c-17.671875 0-32 14.328125-32 32s14.328125 32 32 32 32-14.328125 32-32-14.328125-32-32-32zm0 48c-8.835938 0-16-7.164062-16-16s7.164062-16 16-16 16 7.164062 16 16-7.164062 16-16 16zm0 0"/><path d="m232 40c-17.671875 0-32 14.328125-32 32s14.328125 32 32 32 32-14.328125 32-32-14.328125-32-32-32zm0 48c-8.835938 0-16-7.164062-16-16s7.164062-16 16-16 16 7.164062 16 16-7.164062 16-16 16zm0 0"/><path d="m189.335938 447.542969c4.167968 1.472656 8.738281-.710938 10.207031-4.878907l96-272c1.472656-4.167968-.710938-8.738281-4.878907-10.207031-4.167968-1.472656-8.738281.710938-10.207031 4.878907l-96 272c-1.472656 4.167968.710938 8.738281 4.878907 10.207031zm0 0"/><path d="m306.175781 413.824219c2.121094 0 4.15625-.84375 5.65625-2.34375l93.824219-93.824219c3.121094-3.125 3.121094-8.1875 0-11.3125l-91.480469-91.480469c-2.007812-2.078125-4.984375-2.914062-7.78125-2.179687-2.796875.730468-4.980469 2.914062-5.710937 5.710937-.734375 2.796875.101562 5.773438 2.179687 7.78125l85.824219 85.824219-88.167969 88.167969c-2.285156 2.289062-2.972656 5.726562-1.734375 8.71875 1.238282 2.988281 4.15625 4.9375 7.390625 4.9375zm0 0"/><path d="m168.167969 411.480469c2.007812 2.078125 4.984375 2.914062 7.78125 2.179687 2.796875-.730468 4.980469-2.914062 5.710937-5.710937.734375-2.796875-.101562-5.773438-2.179687-7.78125l-88.167969-88.167969 85.824219-85.824219c2.078125-2.007812 2.914062-4.984375 2.179687-7.78125-.730468-2.796875-2.914062-4.980469-5.710937-5.710937-2.796875-.734375-5.773438.101562-7.78125 2.179687l-91.480469 91.480469c-3.121094 3.125-3.121094 8.1875 0 11.3125zm0 0"/></svg>