<svg height="480pt" viewBox="-48 0 480 480" width="480pt" xmlns="http://www.w3.org/2000/svg"><path d="m192 216c48.601562 0 88-39.398438 88-88s-39.398438-88-88-88-88 39.398438-88 88c.058594 48.578125 39.421875 87.941406 88 88zm0-160c39.765625 0 72 32.234375 72 72s-32.234375 72-72 72-72-32.234375-72-72c.046875-39.746094 32.253906-71.953125 72-72zm0 0"/><path d="m232 272h-80c-83.910156.09375-151.90625 68.089844-152 152v32c0 13.253906 10.746094 24 24 24h336c13.253906 0 24-10.746094 24-24v-32c-.09375-83.910156-68.089844-151.90625-152-152zm136 184c0 4.417969-3.582031 8-8 8h-336c-4.417969 0-8-3.582031-8-8v-32c.082031-75.074219 60.925781-135.917969 136-136h80c75.074219.082031 135.917969 60.925781 136 136zm0 0"/><path d="m40 80c4.417969 0 8-3.582031 8-8v-56h56c4.417969 0 8-3.582031 8-8s-3.582031-8-8-8h-64c-4.417969 0-8 3.582031-8 8v64c0 4.417969 3.582031 8 8 8zm0 0"/><path d="m272 16h56v56c0 4.417969 3.582031 8 8 8s8-3.582031 8-8v-64c0-4.417969-3.582031-8-8-8h-64c-4.417969 0-8 3.582031-8 8s3.582031 8 8 8zm0 0"/><path d="m40 256h64c4.417969 0 8-3.582031 8-8s-3.582031-8-8-8h-56v-56c0-4.417969-3.582031-8-8-8s-8 3.582031-8 8v64c0 4.417969 3.582031 8 8 8zm0 0"/><path d="m336 176c-4.417969 0-8 3.582031-8 8v56h-56c-4.417969 0-8 3.582031-8 8s3.582031 8 8 8h64c4.417969 0 8-3.582031 8-8v-64c0-4.417969-3.582031-8-8-8zm0 0"/></svg>