<svg height="480pt" viewBox="-108 0 480 480.00025" width="480pt" xmlns="http://www.w3.org/2000/svg"><path d="m256 272h-16v-264c0-4.417969-3.582031-8-8-8-22.632812-.0664062-43.003906 13.710938-51.359375 34.746094l-7.503906 19c-19.164063 47.644531-19.164063 100.855468 0 148.503906l18.863281 47.285156v22.464844h-16c-4.417969 0-8 3.582031-8 8v152c0 26.511719 21.492188 48 48 48 26.511719 0 48-21.488281 48-48v-152c0-4.417969-3.582031-8-8-8zm-48.566406-26.96875-19.433594-48.71875c-17.640625-43.84375-17.640625-92.8125 0-136.65625l7.496094-18.992188c4.878906-12.246093 15.59375-21.214843 28.503906-23.863281v255.199219h-16v-24c0-1.015625-.191406-2.023438-.566406-2.96875zm40.566406 186.96875c0 17.671875-14.328125 32-32 32s-32-14.328125-32-32v-144h64zm0 0"/><path d="m104 0c-4.417969 0-8 3.582031-8 8v80c-.023438 19-13.386719 35.371094-32 39.199219v-119.199219c0-4.417969-3.582031-8-8-8s-8 3.582031-8 8v119.199219c-18.609375-3.828125-31.976562-20.199219-32-39.199219v-80c0-4.417969-3.582031-8-8-8s-8 3.582031-8 8v80c.03125 21.601562 12.480469 41.261719 32 50.519531v133.480469h-16c-4.417969 0-8 3.582031-8 8v152c0 26.511719 21.492188 48 48 48 26.511719 0 48-21.488281 48-48v-152c0-4.417969-3.582031-8-8-8h-16v-133.480469c19.519531-9.257812 31.96875-28.917969 32-50.519531v-80c0-4.417969-3.582031-8-8-8zm-16 432c0 17.671875-14.328125 32-32 32s-32-14.328125-32-32v-144h64zm-24-160h-16v-128.640625c5.300781.855469 10.699219.855469 16 0zm0 0"/></svg>