<svg height="480pt" viewBox="0 0 480 480" width="480pt" xmlns="http://www.w3.org/2000/svg"><path d="m456 96h-128.886719c15.558594-15.171875 20.925781-37.984375 13.757813-58.503906-7.164063-20.515625-25.566406-35.027344-47.191406-37.210938-21.621094-2.1875-42.554688 8.347656-53.679688 27.019532-11.125-18.671876-32.058594-29.207032-53.679688-27.019532-21.625 2.183594-40.027343 16.695313-47.191406 37.210938-7.167968 20.519531-1.800781 43.332031 13.757813 58.503906h-128.886719c-13.253906 0-24 10.742188-24 24v64c0 13.253906 10.746094 24 24 24h16v248c0 13.253906 10.746094 24 24 24h352c13.253906 0 24-10.746094 24-24v-248h16c13.253906 0 24-10.746094 24-24v-64c0-13.257812-10.746094-24-24-24zm-168-80c22.089844 0 40 17.90625 40 40 0 22.089844-17.910156 40-40 40s-40-17.910156-40-40c.027344-22.082031 17.917969-39.976562 40-40zm-136 40c0-22.09375 17.910156-40 40-40s40 17.90625 40 40c0 22.089844-17.910156 40-40 40-22.082031-.027344-39.972656-17.921875-40-40zm-136 128v-64c0-4.417969 3.582031-8 8-8h184v80h-184c-4.417969 0-8-3.582031-8-8zm40 272v-248h152v256h-144c-4.417969 0-8-3.582031-8-8zm168-352c0-.640625-.074219-1.28125-.222656-1.90625.503906-.351562.957031-.800781 1.453125-1.125.945312-.707031 1.898437-1.402344 2.792969-2.160156.617187-.523438 1.191406-1.074219 1.785156-1.601563.800781-.746093 1.597656-1.488281 2.398437-2.28125.570313-.589843 1.113281-1.207031 1.664063-1.832031.714844-.800781 1.417968-1.597656 2.089844-2.472656.53125-.648438 1.027343-1.3125 1.488281-1.992188.628906-.871094 1.238281-1.765625 1.816406-2.679687.246094-.375.527344-.726563.757813-1.109375.234374.382812.519531.734375.761718 1.117187.574219.90625 1.183594 1.792969 1.808594 2.671875.484375.675782.980469 1.347656 1.496094 2 .671875.84375 1.375 1.65625 2.085937 2.464844.550781.625 1.097657 1.242188 1.664063 1.832031.800781.800781 1.601562 1.535157 2.398437 2.28125.59375.542969 1.167969 1.097657 1.785157 1.601563.898437.75 1.839843 1.453125 2.785156 2.148437.496094.371094.960937.800781 1.464844 1.136719-.164063.621094-.257813 1.261719-.273438 1.90625v360h-32zm200 352c0 4.417969-3.582031 8-8 8h-144v-256h152zm40-272c0 4.417969-3.582031 8-8 8h-184v-80h184c4.417969 0 8 3.582031 8 8zm0 0"/></svg>