<svg height="480pt" viewBox="0 -12 480.03706 480" width="480pt" xmlns="http://www.w3.org/2000/svg"><path d="m480 265.929688c.46875-10.660157-3.496094-21.039063-10.953125-28.671876-4.316406-4.523437-9.578125-8.046874-15.40625-10.320312 6.148437-6.792969 9.792969-15.484375 10.335937-24.632812.5625-10.679688-3.34375-21.113282-10.785156-28.796876-8.144531-8.597656-19.460937-13.472656-31.304687-13.488281h-117.886719c-4.417969 0-8-3.582031-8-8v-96c-.035156-30.914062-25.085938-55.9648435-56-55.9999998h-16c-13.253906 0-24 10.7460938-24 23.9999998v48c-.058594 48.578125-39.421875 87.941407-88 88v-16c0-4.417969-3.582031-8-8-8h-96c-4.417969 0-8 3.582031-8 8v304c0 4.417969 3.582031 8 8 8h96c4.417969 0 8-3.582031 8-8v-27.296875c17.117188 7.421875 35.570312 11.265625 54.222656 11.296875h233.777344c15.304688-.007812 29.265625-8.75 35.957031-22.515625 6.691407-13.765625 4.941407-30.140625-4.507812-42.179687 18.894531-3.5625 32.570312-20.078125 32.550781-39.304688.011719-9.769531-3.570312-19.199219-10.0625-26.496093 5.398438-2.035157 10.304688-5.183594 14.398438-9.25 7.003906-7.042969 11.15625-16.425782 11.664062-26.34375zm-384 174.089843h-80v-288h80zm361.023438-159.058593c-4.519532 4.511718-10.640626 7.050781-17.023438 7.058593h-16c-4.417969 0-8 3.582031-8 8s3.582031 8 8 8c13.253906 0 24 10.746094 24 24 0 13.253907-10.746094 24-24 24h-24c-4.417969 0-8 3.582031-8 8s3.582031 8 8 8c13.253906 0 24 10.746094 24 24 0 13.253907-10.746094 24-24 24h-233.777344c-18.601562-.027343-36.945312-4.355469-53.597656-12.648437l-.625-.296875v-227.054688c57.410156-.066406 103.933594-46.589843 104-104v-48c0-4.417969 3.582031-8 8-8h16c22.082031.027344 39.972656 17.917969 40 40v96c0 13.253907 10.746094 24 24 24h117.886719c7.429687.03125 14.523437 3.101563 19.632812 8.496094 4.386719 4.492187 6.703125 10.609375 6.402344 16.878906-.707031 12.695313-11.207031 22.625-23.921875 22.625-4.417969 0-8 3.582031-8 8s3.582031 8 8 8h14.191406c7.273438.027344 14.222656 3.015625 19.242188 8.277344 4.417968 4.480469 6.796875 10.585937 6.566406 16.875-.308594 5.941406-2.789062 11.5625-6.976562 15.789063zm0 0"/></svg>