<svg height="480pt" viewBox="0 -84 480 480" width="480pt" xmlns="http://www.w3.org/2000/svg"><path d="m475.328125.726562c-2.84375-1.304687-6.191406-.828124-8.558594 1.21875l-98.769531 85.292969v-39.238281c-.027344-22.082031-17.917969-39.972656-40-40h-288c-22.082031.027344-39.9726562 17.917969-40 40v224c.0273438 22.078125 17.917969 39.972656 40 40h288c22.082031-.027344 39.972656-17.921875 40-40v-42.71875l98.9375 80.910156c1.425781 1.167969 3.214844 1.808594 5.0625 1.808594 1.1875-.003906 2.359375-.277344 3.425781-.800781 2.78125-1.316407 4.5625-4.117188 4.574219-7.199219v-296c0-3.128906-1.828125-5.972656-4.671875-7.273438zm-123.328125 271.273438c0 13.253906-10.746094 24-24 24h-288c-13.253906 0-24-10.746094-24-24v-224c0-13.253906 10.746094-24 24-24h288c13.253906 0 24 10.746094 24 24zm112 15.128906-96-78.519531v-100.226563l96-82.902343zm0 0"/><path d="m184 96c-50.785156 0-121.9375 55.351562-124.9375 57.703125-1.933594 1.515625-3.0625 3.839844-3.0625 6.296875s1.128906 4.777344 3.0625 6.296875c3 2.351563 74.152344 57.703125 124.9375 57.703125s121.9375-55.351562 124.9375-57.703125c1.933594-1.519531 3.0625-3.839844 3.0625-6.296875s-1.128906-4.78125-3.0625-6.296875c-3-2.351563-74.152344-57.703125-124.9375-57.703125zm0 112c-35.832031 0-86.625-33.703125-106.566406-48 19.925781-14.304688 70.6875-48 106.566406-48s86.625 33.703125 106.566406 48c-19.925781 14.304688-70.6875 48-106.566406 48zm0 0"/><path d="m144 160c0 22.089844 17.910156 40 40 40s40-17.910156 40-40c0-22.09375-17.910156-40-40-40-22.082031.027344-39.972656 17.917969-40 40zm64 0c0 13.253906-10.746094 24-24 24s-24-10.746094-24-24 10.746094-24 24-24 24 10.746094 24 24zm0 0"/></svg>