<svg height="480pt" viewBox="-72 0 480 480" width="480pt" xmlns="http://www.w3.org/2000/svg"><path d="m296 0h-256c-22.082031.0273438-39.9726562 17.917969-40 40v400c.0273438 22.082031 17.917969 39.972656 40 40h256c22.082031-.027344 39.972656-17.917969 40-40v-400c-.027344-22.082031-17.917969-39.9726562-40-40zm-280 64h304v336h-304zm24-48h256c13.253906 0 24 10.746094 24 24v8h-304v-8c0-13.253906 10.746094-24 24-24zm256 448h-256c-13.253906 0-24-10.746094-24-24v-24h304v24c0 13.253906-10.746094 24-24 24zm0 0"/><path d="m192 432h-48c-4.417969 0-8 3.582031-8 8s3.582031 8 8 8h48c4.417969 0 8-3.582031 8-8s-3.582031-8-8-8zm0 0"/><path d="m248 192v-40c-.035156-30.914062-25.085938-55.964844-56-56h-48c-30.914062.035156-55.964844 25.085938-56 56v40c-22.082031.027344-39.972656 17.917969-40 40v96c.027344 22.082031 17.917969 39.972656 40 40h160c22.082031-.027344 39.972656-17.917969 40-40v-96c-.027344-22.082031-17.917969-39.972656-40-40zm-144-40c.027344-22.082031 17.917969-39.972656 40-40h48c22.082031.027344 39.972656 17.917969 40 40v40h-128zm168 176c0 13.253906-10.746094 24-24 24h-160c-13.253906 0-24-10.746094-24-24v-96c0-13.253906 10.746094-24 24-24h160c13.253906 0 24 10.746094 24 24zm0 0"/><path d="m176 273.472656v-25.472656c0-4.417969-3.582031-8-8-8s-8 3.582031-8 8v25.472656c-11.019531 3.894532-17.632812 15.164063-15.65625 26.683594 1.976562 11.523438 11.96875 19.941406 23.65625 19.941406s21.679688-8.417968 23.65625-19.941406c1.976562-11.519531-4.636719-22.789062-15.65625-26.683594zm-8 30.527344c-4.417969 0-8-3.582031-8-8s3.582031-8 8-8 8 3.582031 8 8-3.582031 8-8 8zm0 0"/></svg>