<svg height="480pt" viewBox="0 0 480 480" width="480pt" xmlns="http://www.w3.org/2000/svg"><path d="m240 0c-132.546875 0-240 107.453125-240 240s107.453125 240 240 240 240-107.453125 240-240c-.148438-132.484375-107.515625-239.851562-240-240zm0 464c-123.710938 0-224-100.289062-224-224s100.289062-224 224-224 224 100.289062 224 224c-.140625 123.652344-100.347656 223.859375-224 224zm0 0"/><path d="m240 232c13.253906 0 24-10.746094 24-24v-144c0-13.253906-10.746094-24-24-24s-24 10.746094-24 24v144c0 13.253906 10.746094 24 24 24zm-8-168c0-4.417969 3.582031-8 8-8s8 3.582031 8 8v144c0 4.417969-3.582031 8-8 8s-8-3.582031-8-8zm0 0"/><path d="m315.023438 98.664062c-6.683594-3.597656-14.675782-3.832031-21.558594-.632812-6.84375 3.125-11.808594 9.300781-13.386719 16.65625-2.300781 10.554688 2.710937 21.347656 12.257813 26.402344 45.507812 24.050781 68.761718 76.019531 56.371093 125.980468-12.390625 49.957032-57.234375 85.039063-108.707031 85.039063s-96.316406-35.082031-108.707031-85.039063c-12.390625-49.960937 10.863281-101.929687 56.371093-125.980468 9.5625-5.078125 14.5625-15.910156 12.230469-26.480469-1.636719-7.347656-6.613281-13.503906-13.453125-16.644531s-14.753906-2.902344-21.394531.644531c-61.96875 32.8125-95.351563 102.152344-82.355469 171.054687 13 68.90625 69.347656 121.320313 139.011719 129.304688 6.164063.683594 12.359375 1.027344 18.5625 1.03125 39.304687.097656 77.234375-14.449219 106.398437-40.800781 39-34.871094 58.488282-86.609375 52.183594-138.546875-6.300781-51.9375-37.597656-97.511719-83.808594-122.042969zm20.976562 248.671876c-41.46875 37.050781-100.5625 46.910156-151.8125 25.335937s-85.5-70.730469-87.984375-126.285156c-2.484375-55.550781 27.238281-107.570313 76.355469-133.632813 1.1875-.632812 2.507812-.964844 3.847656-.96875 1.179688 0 2.34375.253906 3.410156.75 2.296875 1.054688 3.960938 3.128906 4.488282 5.601563.796874 3.535156-.90625 7.15625-4.136719 8.800781-52 27.492188-78.566407 86.886719-64.402344 143.976562 14.164063 57.089844 65.414063 97.175782 124.234375 97.175782s110.070312-40.085938 124.234375-97.175782c14.164063-57.089843-12.402344-116.484374-64.402344-143.976562-3.238281-1.664062-4.933593-5.320312-4.105469-8.867188.523438-2.433593 2.171876-4.472656 4.441407-5.496093 2.351562-1.082031 5.074219-.996094 7.351562.234375 41.589844 22.074218 69.757813 63.089844 75.4375 109.832031 5.675781 46.742187-11.859375 93.308594-46.957031 124.695313zm0 0"/></svg>