<svg height="480pt" viewBox="0 0 480 480" width="480pt" xmlns="http://www.w3.org/2000/svg"><path d="m472 224h-32v-40c-.214844-47.617188-28.421875-90.648438-72-109.839844v-66.160156c0-4.417969-3.582031-8-8-8h-352c-4.417969 0-8 3.582031-8 8v416c0 4.417969 3.582031 8 8 8h152v40c0 4.417969 3.582031 8 8 8h304c4.417969 0 8-3.582031 8-8v-240c0-4.417969-3.582031-8-8-8zm-48-40v40h-16v-40c.058594-23.351562-9.226562-45.753906-25.785156-62.214844-25.167969-25.160156-63.011719-32.6875-95.886719-19.070312-32.878906 13.617187-54.320313 45.699218-54.328125 81.285156v40h-16v-40c-.121094-29.496094 12.339844-57.644531 34.257812-77.386719 21.917969-19.738281 51.210938-29.199219 80.535157-26.003906 5.863281.589844 11.660156 1.6875 17.335937 3.277344 3.035156.867187 6.027344 1.867187 8.984375 3.007812 40.164063 15.507813 66.710938 54.050781 66.886719 97.105469zm-56 40v-93.457031c.960938.863281 1.992188 1.601562 2.902344 2.554687 13.546875 13.46875 21.140625 31.796875 21.097656 50.902344v40zm-39.113281-111.414062c.976562.117187 1.9375.34375 2.90625.511718 1.960937.316406 3.902343.671875 5.824219 1.160156 1.117187.277344 2.214843.636719 3.328124.980469 1.734376.53125 3.453126 1.089844 5.152344 1.746094 1.117188.429687 2.214844.917969 3.308594 1.414063.882812.394531 1.730469.847656 2.59375 1.273437v104.328125h-104v-40c-.070312-20.664062 8.769531-40.359375 24.261719-54.035156 15.492187-13.679688 36.128906-20.011719 56.625-17.378906zm-312.886719 303.414062v-400h336v52.359375c-3.054688-.855469-6.152344-1.542969-9.265625-2.152344-.855469-.160156-1.71875-.285156-2.582031-.4375-2.46875-.429687-4.953125-.773437-7.449219-1.035156-.933594-.09375-1.863281-.207031-2.808594-.285156-3.277343-.265625-6.574219-.449219-9.894531-.449219-66.242188.074219-119.925781 53.757812-120 120v40h-32c-4.417969 0-8 3.582031-8 8v184zm448 48h-288v-224h288zm0 0"/><path d="m320 272c-21.746094-.023438-40.792969 14.574219-46.417969 35.582031-5.628906 21.003907 3.570313 43.167969 22.417969 54.019531v62.398438c0 4.417969 3.582031 8 8 8h32c4.417969 0 8-3.582031 8-8v-62.398438c18.847656-10.851562 28.046875-33.015624 22.417969-54.019531-5.625-21.007812-24.671875-35.605469-46.417969-35.582031zm12.800781 77.40625c-2.910156 1.269531-4.792969 4.140625-4.800781 7.3125v59.28125h-16v-59.28125c0-3.164062-1.867188-6.027344-4.761719-7.3125-13.902343-6.042969-21.65625-21.015625-18.566406-35.859375 3.085937-14.84375 16.167969-25.484375 31.328125-25.484375s28.242188 10.640625 31.328125 25.484375c3.089844 14.84375-4.664063 29.816406-18.566406 35.859375zm0 0"/></svg>