<svg height="480pt" viewBox="0 0 480 480" width="480pt" xmlns="http://www.w3.org/2000/svg"><path d="m358.777344 121.230469c-.324219-.246094-.664063-.46875-1.015625-.671875-3.125-2.351563-7.503907-2.0625-10.289063.679687l-22.640625 22.640625c-1.285156 1.632813-2.09375 3.585938-2.34375 5.648438.042969.664062.167969 1.320312.375 1.953125.042969.355469.109375.710937.207031 1.054687.265626.511719.582032.996094.945313 1.441406.226563.425782.496094.832032.800781 1.207032 33.308594 33.273437 44.074219 82.957031 27.519532 127.035156-16.550782 44.078125-57.359376 74.394531-104.335938 77.515625v-35.65625c0-3.140625-1.84375-5.992187-4.707031-7.285156-2.867188-1.292969-6.222657-.789063-8.582031 1.285156l-67.917969 59.921875c-1.722657 1.519531-2.710938 3.703125-2.710938 6s.988281 4.480469 2.710938 6l67.917969 59.921875c2.359374 2.074219 5.714843 2.578125 8.582031 1.285156 2.863281-1.292969 4.707031-4.144531 4.707031-7.285156v-36.105469c66.410156-3.179687 124.695312-45.222656 148.664062-107.238281 23.972657-62.011719 9.117188-132.328125-37.886718-179.347656zm-118.777344 270.769531c-4.417969 0-8 3.582031-8 8v26.191406l-47.832031-42.191406 47.832031-42.191406v26.191406c0 4.417969 3.582031 8 8 8 53.554688.023438 102.128906-31.398438 124.066406-80.253906 21.933594-48.855469 13.136719-106.039063-22.464844-146.042969l11.367188-11.367187c25.234375 27.832031 39.15625 64.09375 39.03125 101.664062-.09375 83.910156-68.089844 151.90625-152 152zm0 0"/><path d="m157.144531 328.535156c-.042969-.355468-.109375-.710937-.207031-1.054687-.265625-.511719-.582031-.996094-.945312-1.441407-.226563-.425781-.496094-.832031-.800782-1.207031-33.320312-33.273437-44.089844-82.960937-27.539062-127.042969 16.550781-44.082031 57.363281-74.402343 104.347656-77.523437v35.65625c0 3.140625 1.84375 5.992187 4.707031 7.285156 2.867188 1.292969 6.222657.789063 8.582031-1.285156l67.917969-59.921875c1.722657-1.519531 2.710938-3.703125 2.710938-6s-.988281-4.480469-2.710938-6l-67.917969-59.921875c-2.359374-2.074219-5.714843-2.578125-8.582031-1.285156-2.863281 1.292969-4.707031 4.144531-4.707031 7.285156v36.105469c-66.410156 3.179687-124.695312 45.222656-148.664062 107.238281-23.972657 62.011719-9.117188 132.328125 37.886718 179.347656.503906.425781 1.054688.785157 1.640625 1.078125.316407.25.65625.472656 1.007813.664063 2.976562 1.207031 6.382812.515625 8.65625-1.75l22.640625-22.640625c1.285156-1.632813 2.09375-3.585938 2.34375-5.648438-.039063-.660156-.164063-1.308594-.367188-1.9375zm-30.121093 13.128906c-25.234376-27.832031-39.152344-64.09375-39.023438-101.664062.09375-83.910156 68.089844-151.90625 152-152 4.417969 0 8-3.582031 8-8v-26.191406l47.832031 42.191406-47.832031 42.191406v-26.191406c0-4.417969-3.582031-8-8-8-53.554688-.023438-102.128906 31.398438-124.066406 80.253906-21.933594 48.855469-13.136719 106.039063 22.464844 146.042969zm0 0"/><path d="m240 0c-132.546875 0-240 107.453125-240 240s107.453125 240 240 240 240-107.453125 240-240c-.148438-132.484375-107.515625-239.851562-240-240zm0 464c-123.710938 0-224-100.289062-224-224s100.289062-224 224-224 224 100.289062 224 224c-.140625 123.652344-100.347656 223.859375-224 224zm0 0"/></svg>