<svg height="480pt" viewBox="0 0 480 480" width="480pt" xmlns="http://www.w3.org/2000/svg"><path d="m240 0c-132.546875 0-240 107.453125-240 240s107.453125 240 240 240 240-107.453125 240-240c-.148438-132.484375-107.515625-239.851562-240-240zm0 464c-123.710938 0-224-100.289062-224-224s100.289062-224 224-224 224 100.289062 224 224c-.140625 123.652344-100.347656 223.859375-224 224zm0 0"/><path d="m239.199219 224h1.601562c8.21875.027344 15.101563-6.21875 15.871094-14.398438l8.40625-79.523437 2.722656-25.796875 4-37.921875v-.382813l.128907-1.214843c.035156-.253907.0625-.507813.070312-.761719 0-17.671875-14.328125-32-32-32-8.613281.039062-16.851562 3.53125-22.867188 9.699219-6.015624 6.164062-9.304687 14.488281-9.132812 23.101562l15.28125 144.800781c.777344 8.195313 7.683594 14.445313 15.917969 14.398438zm.800781-176c8.691406-.003906 15.796875 6.933594 16 15.625l-15.199219 144.375h-1.601562l-15.078125-143.199219-.121094-.800781c0-8.835938 7.164062-16 16-16zm0 0"/><path d="m240 304c17.671875 0 32-14.328125 32-32s-14.328125-32-32-32-32 14.328125-32 32 14.328125 32 32 32zm0-48c8.835938 0 16 7.164062 16 16s-7.164062 16-16 16-16-7.164062-16-16 7.164062-16 16-16zm0 0"/><path d="m297.550781 65.191406c-4.195312-1.382812-8.71875.898438-10.101562 5.097656-1.382813 4.195313.898437 8.71875 5.09375 10.101563 78.230469 25.765625 126.246093 104.4375 113.390625 185.789063-12.851563 81.351562-82.785156 141.390624-165.144532 141.78125-82.363281.386718-152.859374-58.984376-166.480468-140.210938-13.625-81.226562 33.648437-160.351562 111.628906-186.855469 4.058594-1.503906 6.183594-5.96875 4.789062-10.070312-1.390624-4.101563-5.796874-6.351563-9.933593-5.070313-85.398438 29.039063-137.15625 115.699219-122.226563 204.65625 14.929688 88.957032 92.144532 153.976563 182.34375 153.542969 90.199219-.433594 166.789063-66.1875 180.863282-155.28125 14.078124-89.097656-38.507813-175.261719-124.179688-203.480469zm0 0"/><path d="m187.761719 131.921875c-50.484375 24.410156-77.328125 80.53125-64.652344 135.152344 12.675781 54.625 61.488281 93.1875 117.5625 92.875s104.457031-39.417969 116.523437-94.179688c12.0625-54.761719-15.40625-110.578125-66.15625-134.425781-3.996093-1.882812-8.765624-.167969-10.648437 3.832031-1.878906 4-.164063 8.765625 3.832031 10.648438 43.988282 20.664062 67.796875 69.042969 57.34375 116.503906-10.457031 47.460937-52.390625 81.355469-100.988281 81.625-48.601563.269531-90.90625-33.15625-101.886719-80.5-10.984375-47.34375 12.289063-95.980469 56.042969-117.132813 3.976563-1.925781 5.640625-6.710937 3.714844-10.6875-1.925781-3.976562-6.710938-5.640624-10.6875-3.710937zm0 0"/></svg>